<svg id="Layer_1" data-name="Layer 1" xmlns="http://www.w3.org/2000/svg" viewBox="0 0 370.26 370.26"><defs><style>.cls-1{fill:#fcd021;}</style></defs><circle class="cls-1" cx="185.13" cy="185.13" r="90.98"/><rect class="cls-1" x="179.36" width="11.54" height="73.98" rx="5.77"/><rect class="cls-1" x="179.36" y="296.28" width="11.54" height="73.98" rx="5.77"/><rect class="cls-1" x="145.48" y="323.76" width="11.54" height="73.98" rx="5.77" transform="translate(-67.76 651.92) rotate(-135)"/><rect class="cls-1" x="354.98" y="114.26" width="11.54" height="73.98" rx="5.77" transform="translate(438.02 442.42) rotate(-135)"/><rect class="cls-1" x="102.09" y="219.01" width="11.54" height="73.98" rx="5.77" transform="translate(-219.01 292.99) rotate(-90)"/><rect class="cls-1" x="398.37" y="219.01" width="11.54" height="73.98" rx="5.77" transform="translate(77.27 589.27) rotate(-90)"/><rect class="cls-1" x="145.48" y="114.26" width="11.54" height="73.98" rx="5.77" transform="translate(-133.52 80.38) rotate(-45)"/><rect class="cls-1" x="354.98" y="323.76" width="11.54" height="73.98" rx="5.77" transform="translate(-220.3 289.88) rotate(-45)"/></svg>