<svg id="Layer_1" data-name="Layer 1" xmlns="http://www.w3.org/2000/svg" viewBox="0 0 483.83 318.09"><defs><style>.cls-1{fill:#d0dad9;}.cls-2{fill:#61a2d6;}.cls-3{fill:#fff;}</style></defs><rect class="cls-1" y="119.23" width="483.83" height="160.2" rx="80.1"/><circle class="cls-1" cx="151.75" cy="84.22" r="84.22"/><circle class="cls-1" cx="300.53" cy="117.75" r="81.58"/><circle class="cls-2" cx="218.35" cy="285.7" r="32.39"/><rect class="cls-2" x="220.25" y="363.46" width="33.02" height="33.02" transform="translate(406.17 -144.68) rotate(56.12)"/><polygon class="cls-3" points="250.71 286.96 250.78 283.97 251.84 287.99 250.72 287.88 250.71 286.96"/><polygon class="cls-3" points="250.83 286.98 250.89 283.99 251.95 288.01 250.84 287.9 250.83 286.98"/><polygon class="cls-3" points="250.7 286.96 250.77 283.97 251.83 287.98 250.71 287.88 250.7 286.96"/><circle class="cls-2" cx="332.92" cy="285.7" r="32.39"/><rect class="cls-2" x="334.83" y="363.46" width="33.02" height="33.02" transform="matrix(0.56, 0.83, -0.83, 0.56, 456.88, -239.81)"/><polygon class="cls-3" points="365.29 286.96 365.35 283.97 366.41 287.99 365.3 287.88 365.29 286.96"/><polygon class="cls-3" points="365.4 286.98 365.47 283.99 366.53 288.01 365.41 287.9 365.4 286.98"/><polygon class="cls-3" points="365.28 286.96 365.34 283.97 366.4 287.98 365.29 287.88 365.28 286.96"/></svg>