<svg id="Layer_1" data-name="Layer 1" xmlns="http://www.w3.org/2000/svg" viewBox="0 0 497.92 395.72"><defs><style>.cls-1{fill:#fcd021;}.cls-2{fill:#fff;}</style></defs><circle class="cls-1" cx="312.79" cy="185.13" r="90.98"/><rect class="cls-1" x="307.02" width="11.54" height="73.98" rx="5.77"/><rect class="cls-1" x="307.02" y="296.28" width="11.54" height="73.98" rx="5.77"/><rect class="cls-1" x="216.35" y="252.89" width="11.54" height="73.98" rx="5.77" transform="translate(160.13 651.92) rotate(-135)"/><rect class="cls-1" x="425.85" y="43.39" width="11.54" height="73.98" rx="5.77" transform="translate(665.9 442.42) rotate(-135)"/><rect class="cls-1" x="172.96" y="148.14" width="11.54" height="73.98" rx="5.77" transform="translate(-20.48 363.86) rotate(-90)"/><rect class="cls-1" x="469.24" y="148.14" width="11.54" height="73.98" rx="5.77" transform="translate(275.8 660.14) rotate(-90)"/><rect class="cls-1" x="216.35" y="43.39" width="11.54" height="73.98" rx="5.77" transform="translate(-5.86 180.61) rotate(-45)"/><rect class="cls-1" x="425.85" y="252.89" width="11.54" height="73.98" rx="5.77" transform="translate(-92.64 390.11) rotate(-45)"/><rect class="cls-2" y="235.51" width="483.83" height="160.2" rx="80.1"/><circle class="cls-2" cx="151.75" cy="200.5" r="84.22"/><circle class="cls-2" cx="300.53" cy="234.04" r="81.58"/></svg>