<svg id="Layer_1" data-name="Layer 1" xmlns="http://www.w3.org/2000/svg" viewBox="0 0 497.92 434.38"><defs><style>.cls-1{fill:#fbd01c;}.cls-2{fill:#fff;}.cls-3{fill:#61a2d6;}</style></defs><path class="cls-1" d="M490.4,242.34a102.46,102.46,0,0,0,21.6-2.28,139.55,139.55,0,1,1,0-201,102.8,102.8,0,1,0-21.6,203.3Z" transform="translate(-14.08)"/><rect class="cls-2" y="235.51" width="483.83" height="160.2" rx="80.1"/><circle class="cls-2" cx="151.75" cy="200.5" r="84.22"/><circle class="cls-2" cx="300.53" cy="234.04" r="81.58"/><circle class="cls-3" cx="218.35" cy="401.98" r="32.39"/><rect class="cls-3" x="220.25" y="363.46" width="33.02" height="33.02" transform="translate(406.17 -28.4) rotate(56.12)"/><polygon class="cls-2" points="250.71 403.24 250.78 400.25 251.84 404.27 250.72 404.17 250.71 403.24"/><polygon class="cls-2" points="250.83 403.27 250.89 400.28 251.95 404.29 250.84 404.19 250.83 403.27"/><polygon class="cls-2" points="250.7 403.24 250.77 400.25 251.83 404.27 250.71 404.16 250.7 403.24"/><circle class="cls-3" cx="332.92" cy="401.98" r="32.39"/><rect class="cls-3" x="334.83" y="363.46" width="33.02" height="33.02" transform="matrix(0.56, 0.83, -0.83, 0.56, 456.88, -123.52)"/><polygon class="cls-2" points="365.29 403.24 365.35 400.25 366.41 404.27 365.3 404.17 365.29 403.24"/><polygon class="cls-2" points="365.4 403.27 365.47 400.28 366.53 404.29 365.41 404.19 365.4 403.27"/><polygon class="cls-2" points="365.28 403.24 365.34 400.25 366.4 404.27 365.29 404.16 365.28 403.24"/></svg>